<svg width="37" height="13" viewBox="0 0 37 13" fill="none" xmlns="http://www.w3.org/2000/svg">
<path d="M36.5 6.6286L36.8352 6.99964C36.9415 6.90361 37.0015 6.76661 37 6.62336C36.9985 6.48012 36.9356 6.3444 36.8273 6.25062L36.5 6.6286ZM29.6648 12.129C29.4599 12.3141 29.4439 12.6302 29.629 12.8352C29.8141 13.0401 30.1302 13.0561 30.3352 12.871L29.6648 12.129ZM30.3273 0.622019C30.1186 0.441252 29.8028 0.463939 29.622 0.672692C29.4413 0.881445 29.4639 1.19721 29.6727 1.37798L30.3273 0.622019ZM36.1648 6.25756L29.6648 12.129L30.3352 12.871L36.8352 6.99964L36.1648 6.25756ZM36.8273 6.25062L30.3273 0.622019L29.6727 1.37798L36.1727 7.00658L36.8273 6.25062ZM36.5 6.1286C36.4722 6.1286 36.4443 6.1286 36.4166 6.1286C36.3888 6.1286 36.361 6.1286 36.3332 6.1286C36.3055 6.1286 36.2778 6.1286 36.2501 6.1286C36.2224 6.1286 36.1947 6.1286 36.1671 6.1286C36.1394 6.1286 36.1118 6.1286 36.0842 6.1286C36.0566 6.1286 36.029 6.1286 36.0014 6.1286C35.9739 6.1286 35.9463 6.1286 35.9188 6.1286C35.8913 6.1286 35.8638 6.1286 35.8364 6.1286C35.8089 6.1286 35.7815 6.1286 35.7541 6.1286C35.7266 6.1286 35.6992 6.1286 35.6719 6.1286C35.6445 6.1286 35.6171 6.1286 35.5898 6.1286C35.5625 6.1286 35.5352 6.1286 35.5079 6.1286C35.4806 6.1286 35.4534 6.1286 35.4261 6.1286C35.3989 6.1286 35.3717 6.1286 35.3445 6.1286C35.3173 6.1286 35.2901 6.1286 35.263 6.1286C35.2359 6.1286 35.2087 6.1286 35.1816 6.1286C35.1545 6.1286 35.1275 6.1286 35.1004 6.1286C35.0734 6.1286 35.0463 6.1286 35.0193 6.1286C34.9923 6.1286 34.9653 6.1286 34.9383 6.1286C34.9114 6.1286 34.8844 6.1286 34.8575 6.1286C34.8306 6.1286 34.8037 6.1286 34.7768 6.1286C34.7499 6.1286 34.7231 6.1286 34.6962 6.1286C34.6694 6.1286 34.6426 6.1286 34.6158 6.1286C34.589 6.1286 34.5622 6.1286 34.5355 6.1286C34.5088 6.1286 34.482 6.1286 34.4553 6.1286C34.4286 6.1286 34.4019 6.1286 34.3753 6.1286C34.3486 6.1286 34.322 6.1286 34.2954 6.1286C34.2687 6.1286 34.2421 6.1286 34.2156 6.1286C34.189 6.1286 34.1624 6.1286 34.1359 6.1286C34.1094 6.1286 34.0829 6.1286 34.0564 6.1286C34.0299 6.1286 34.0034 6.1286 33.977 6.1286C33.9505 6.1286 33.9241 6.1286 33.8977 6.1286C33.8713 6.1286 33.8449 6.1286 33.8185 6.1286C33.7922 6.1286 33.7658 6.1286 33.7395 6.1286C33.7132 6.1286 33.6869 6.1286 33.6606 6.1286C33.6343 6.1286 33.608 6.1286 33.5818 6.1286C33.5556 6.1286 33.5293 6.1286 33.5031 6.1286C33.4769 6.1286 33.4508 6.1286 33.4246 6.1286C33.3984 6.1286 33.3723 6.1286 33.3462 6.1286C33.3201 6.1286 33.294 6.1286 33.2679 6.1286C33.2418 6.1286 33.2157 6.1286 33.1897 6.1286C33.1637 6.1286 33.1377 6.1286 33.1117 6.1286C33.0857 6.1286 33.0597 6.1286 33.0337 6.1286C33.0078 6.1286 32.9818 6.1286 32.9559 6.1286C32.93 6.1286 32.9041 6.1286 32.8782 6.1286C32.8523 6.1286 32.8265 6.1286 32.8006 6.1286C32.7748 6.1286 32.749 6.1286 32.7232 6.1286C32.6974 6.1286 32.6716 6.1286 32.6458 6.1286C32.6201 6.1286 32.5943 6.1286 32.5686 6.1286C32.5429 6.1286 32.5172 6.1286 32.4915 6.1286C32.4658 6.1286 32.4401 6.1286 32.4145 6.1286C32.3888 6.1286 32.3632 6.1286 32.3376 6.1286C32.312 6.1286 32.2864 6.1286 32.2608 6.1286C32.2353 6.1286 32.2097 6.1286 32.1842 6.1286C32.1587 6.1286 32.1331 6.1286 32.1077 6.1286C32.0822 6.1286 32.0567 6.1286 32.0312 6.1286C32.0058 6.1286 31.9803 6.1286 31.9549 6.1286C31.9295 6.1286 31.9041 6.1286 31.8787 6.1286C31.8533 6.1286 31.828 6.1286 31.8026 6.1286C31.7773 6.1286 31.7519 6.1286 31.7266 6.1286C31.7013 6.1286 31.676 6.1286 31.6508 6.1286C31.6255 6.1286 31.6002 6.1286 31.575 6.1286C31.5498 6.1286 31.5245 6.1286 31.4993 6.1286C31.4741 6.1286 31.449 6.1286 31.4238 6.1286C31.3986 6.1286 31.3735 6.1286 31.3483 6.1286C31.3232 6.1286 31.2981 6.1286 31.273 6.1286C31.2479 6.1286 31.2228 6.1286 31.1978 6.1286C31.1727 6.1286 31.1477 6.1286 31.1227 6.1286C31.0976 6.1286 31.0726 6.1286 31.0477 6.1286C31.0227 6.1286 30.9977 6.1286 30.9727 6.1286C30.9478 6.1286 30.9229 6.1286 30.8979 6.1286C30.873 6.1286 30.8481 6.1286 30.8232 6.1286C30.7983 6.1286 30.7735 6.1286 30.7486 6.1286C30.7238 6.1286 30.6989 6.1286 30.6741 6.1286C30.6493 6.1286 30.6245 6.1286 30.5997 6.1286C30.575 6.1286 30.5502 6.1286 30.5254 6.1286C30.5007 6.1286 30.476 6.1286 30.4512 6.1286C30.4265 6.1286 30.4018 6.1286 30.3772 6.1286C30.3525 6.1286 30.3278 6.1286 30.3032 6.1286C30.2785 6.1286 30.2539 6.1286 30.2293 6.1286C30.2047 6.1286 30.1801 6.1286 30.1555 6.1286C30.1309 6.1286 30.1063 6.1286 30.0818 6.1286C30.0572 6.1286 30.0327 6.1286 30.0082 6.1286C29.9837 6.1286 29.9592 6.1286 29.9347 6.1286C29.9102 6.1286 29.8857 6.1286 29.8613 6.1286C29.8368 6.1286 29.8124 6.1286 29.788 6.1286C29.7635 6.1286 29.7391 6.1286 29.7147 6.1286C29.6903 6.1286 29.666 6.1286 29.6416 6.1286C29.6173 6.1286 29.5929 6.1286 29.5686 6.1286C29.5443 6.1286 29.5199 6.1286 29.4956 6.1286C29.4714 6.1286 29.4471 6.1286 29.4228 6.1286C29.3985 6.1286 29.3743 6.1286 29.3501 6.1286C29.3258 6.1286 29.3016 6.1286 29.2774 6.1286C29.2532 6.1286 29.229 6.1286 29.2048 6.1286C29.1807 6.1286 29.1565 6.1286 29.1324 6.1286C29.1082 6.1286 29.0841 6.1286 29.06 6.1286C29.0359 6.1286 29.0118 6.1286 28.9877 6.1286C28.9636 6.1286 28.9395 6.1286 28.9155 6.1286C28.8914 6.1286 28.8674 6.1286 28.8434 6.1286C28.8193 6.1286 28.7953 6.1286 28.7713 6.1286C28.7473 6.1286 28.7233 6.1286 28.6994 6.1286C28.6754 6.1286 28.6515 6.1286 28.6275 6.1286C28.6036 6.1286 28.5797 6.1286 28.5558 6.1286C28.5318 6.1286 28.508 6.1286 28.4841 6.1286C28.4602 6.1286 28.4363 6.1286 28.4125 6.1286C28.3886 6.1286 28.3648 6.1286 28.341 6.1286C28.3171 6.1286 28.2933 6.1286 28.2695 6.1286C28.2457 6.1286 28.222 6.1286 28.1982 6.1286C28.1744 6.1286 28.1507 6.1286 28.1269 6.1286C28.1032 6.1286 28.0794 6.1286 28.0557 6.1286C28.032 6.1286 28.0083 6.1286 27.9846 6.1286C27.9609 6.1286 27.9373 6.1286 27.9136 6.1286C27.89 6.1286 27.8663 6.1286 27.8427 6.1286C27.819 6.1286 27.7954 6.1286 27.7718 6.1286C27.7482 6.1286 27.7246 6.1286 27.701 6.1286C27.6775 6.1286 27.6539 6.1286 27.6303 6.1286C27.6068 6.1286 27.5832 6.1286 27.5597 6.1286C27.5362 6.1286 27.5127 6.1286 27.4892 6.1286C27.4657 6.1286 27.4422 6.1286 27.4187 6.1286C27.3952 6.1286 27.3718 6.1286 27.3483 6.1286C27.3249 6.1286 27.3014 6.1286 27.278 6.1286C27.2546 6.1286 27.2312 6.1286 27.2078 6.1286C27.1844 6.1286 27.161 6.1286 27.1376 6.1286C27.1142 6.1286 27.0909 6.1286 27.0675 6.1286C27.0442 6.1286 27.0208 6.1286 26.9975 6.1286C26.9742 6.1286 26.9509 6.1286 26.9276 6.1286C26.9043 6.1286 26.881 6.1286 26.8577 6.1286C26.8344 6.1286 26.8112 6.1286 26.7879 6.1286C26.7646 6.1286 26.7414 6.1286 26.7182 6.1286C26.6949 6.1286 26.6717 6.1286 26.6485 6.1286C26.6253 6.1286 26.6021 6.1286 26.5789 6.1286C26.5558 6.1286 26.5326 6.1286 26.5094 6.1286C26.4863 6.1286 26.4631 6.1286 26.44 6.1286C26.4168 6.1286 26.3937 6.1286 26.3706 6.1286C26.3475 6.1286 26.3244 6.1286 26.3013 6.1286C26.2782 6.1286 26.2551 6.1286 26.2321 6.1286C26.209 6.1286 26.1859 6.1286 26.1629 6.1286C26.1398 6.1286 26.1168 6.1286 26.0938 6.1286C26.0708 6.1286 26.0478 6.1286 26.0247 6.1286C26.0017 6.1286 25.9788 6.1286 25.9558 6.1286C25.9328 6.1286 25.9098 6.1286 25.8869 6.1286C25.8639 6.1286 25.841 6.1286 25.818 6.1286C25.7951 6.1286 25.7722 6.1286 25.7492 6.1286C25.7263 6.1286 25.7034 6.1286 25.6805 6.1286C25.6576 6.1286 25.6347 6.1286 25.6119 6.1286C25.589 6.1286 25.5661 6.1286 25.5433 6.1286C25.5204 6.1286 25.4976 6.1286 25.4748 6.1286C25.4519 6.1286 25.4291 6.1286 25.4063 6.1286C25.3835 6.1286 25.3607 6.1286 25.3379 6.1286C25.3151 6.1286 25.2923 6.1286 25.2695 6.1286C25.2468 6.1286 25.224 6.1286 25.2012 6.1286C25.1785 6.1286 25.1557 6.1286 25.133 6.1286C25.1103 6.1286 25.0875 6.1286 25.0648 6.1286C25.0421 6.1286 25.0194 6.1286 24.9967 6.1286C24.974 6.1286 24.9513 6.1286 24.9287 6.1286C24.906 6.1286 24.8833 6.1286 24.8607 6.1286C24.838 6.1286 24.8154 6.1286 24.7927 6.1286C24.7701 6.1286 24.7474 6.1286 24.7248 6.1286C24.7022 6.1286 24.6796 6.1286 24.657 6.1286C24.6344 6.1286 24.6118 6.1286 24.5892 6.1286C24.5666 6.1286 24.5441 6.1286 24.5215 6.1286C24.4989 6.1286 24.4764 6.1286 24.4538 6.1286C24.4313 6.1286 24.4087 6.1286 24.3862 6.1286C24.3637 6.1286 24.3411 6.1286 24.3186 6.1286C24.2961 6.1286 24.2736 6.1286 24.2511 6.1286C24.2286 6.1286 24.2061 6.1286 24.1836 6.1286C24.1612 6.1286 24.1387 6.1286 24.1162 6.1286C24.0938 6.1286 24.0713 6.1286 24.0489 6.1286C24.0264 6.1286 24.004 6.1286 23.9815 6.1286C23.9591 6.1286 23.9367 6.1286 23.9143 6.1286C23.8919 6.1286 23.8694 6.1286 23.847 6.1286C23.8247 6.1286 23.8023 6.1286 23.7799 6.1286C23.7575 6.1286 23.7351 6.1286 23.7128 6.1286C23.6904 6.1286 23.668 6.1286 23.6457 6.1286C23.6233 6.1286 23.601 6.1286 23.5786 6.1286C23.5563 6.1286 23.534 6.1286 23.5117 6.1286C23.4893 6.1286 23.467 6.1286 23.4447 6.1286C23.4224 6.1286 23.4001 6.1286 23.3778 6.1286C23.3555 6.1286 23.3332 6.1286 23.311 6.1286C23.2887 6.1286 23.2664 6.1286 23.2441 6.1286C23.2219 6.1286 23.1996 6.1286 23.1774 6.1286C23.1551 6.1286 23.1329 6.1286 23.1106 6.1286C23.0884 6.1286 23.0662 6.1286 23.044 6.1286C23.0217 6.1286 22.9995 6.1286 22.9773 6.1286C22.9551 6.1286 22.9329 6.1286 22.9107 6.1286C22.8885 6.1286 22.8663 6.1286 22.8441 6.1286C22.822 6.1286 22.7998 6.1286 22.7776 6.1286C22.7555 6.1286 22.7333 6.1286 22.7111 6.1286C22.689 6.1286 22.6668 6.1286 22.6447 6.1286C22.6225 6.1286 22.6004 6.1286 22.5783 6.1286C22.5561 6.1286 22.534 6.1286 22.5119 6.1286C22.4898 6.1286 22.4677 6.1286 22.4456 6.1286C22.4235 6.1286 22.4014 6.1286 22.3793 6.1286C22.3572 6.1286 22.3351 6.1286 22.313 6.1286C22.2909 6.1286 22.2688 6.1286 22.2468 6.1286C22.2247 6.1286 22.2026 6.1286 22.1806 6.1286C22.1585 6.1286 22.1364 6.1286 22.1144 6.1286C22.0923 6.1286 22.0703 6.1286 22.0483 6.1286C22.0262 6.1286 22.0042 6.1286 21.9822 6.1286C21.9601 6.1286 21.9381 6.1286 21.9161 6.1286C21.8941 6.1286 21.8721 6.1286 21.8501 6.1286C21.8281 6.1286 21.8061 6.1286 21.7841 6.1286C21.7621 6.1286 21.7401 6.1286 21.7181 6.1286C21.6961 6.1286 21.6741 6.1286 21.6521 6.1286C21.6302 6.1286 21.6082 6.1286 21.5862 6.1286C21.5643 6.1286 21.5423 6.1286 21.5203 6.1286C21.4984 6.1286 21.4764 6.1286 21.4545 6.1286C21.4325 6.1286 21.4106 6.1286 21.3886 6.1286C21.3667 6.1286 21.3448 6.1286 21.3228 6.1286C21.3009 6.1286 21.279 6.1286 21.2571 6.1286C21.2351 6.1286 21.2132 6.1286 21.1913 6.1286C21.1694 6.1286 21.1475 6.1286 21.1256 6.1286C21.1037 6.1286 21.0818 6.1286 21.0599 6.1286C21.038 6.1286 21.0161 6.1286 20.9942 6.1286C20.9723 6.1286 20.9504 6.1286 20.9285 6.1286C20.9067 6.1286 20.8848 6.1286 20.8629 6.1286C20.841 6.1286 20.8192 6.1286 20.7973 6.1286C20.7754 6.1286 20.7536 6.1286 20.7317 6.1286C20.7099 6.1286 20.688 6.1286 20.6661 6.1286C20.6443 6.1286 20.6224 6.1286 20.6006 6.1286C20.5788 6.1286 20.5569 6.1286 20.5351 6.1286C20.5132 6.1286 20.4914 6.1286 20.4696 6.1286C20.4477 6.1286 20.4259 6.1286 20.4041 6.1286C20.3822 6.1286 20.3604 6.1286 20.3386 6.1286C20.3168 6.1286 20.295 6.1286 20.2732 6.1286C20.2513 6.1286 20.2295 6.1286 20.2077 6.1286C20.1859 6.1286 20.1641 6.1286 20.1423 6.1286C20.1205 6.1286 20.0987 6.1286 20.0769 6.1286C20.0551 6.1286 20.0333 6.1286 20.0115 6.1286C19.9897 6.1286 19.9679 6.1286 19.9461 6.1286C19.9244 6.1286 19.9026 6.1286 19.8808 6.1286C19.859 6.1286 19.8372 6.1286 19.8155 6.1286C19.7937 6.1286 19.7719 6.1286 19.7501 6.1286C19.7283 6.1286 19.7066 6.1286 19.6848 6.1286C19.663 6.1286 19.6413 6.1286 19.6195 6.1286C19.5977 6.1286 19.576 6.1286 19.5542 6.1286C19.5325 6.1286 19.5107 6.1286 19.4889 6.1286C19.4672 6.1286 19.4454 6.1286 19.4237 6.1286C19.4019 6.1286 19.3802 6.1286 19.3584 6.1286C19.3367 6.1286 19.3149 6.1286 19.2932 6.1286C19.2714 6.1286 19.2497 6.1286 19.2279 6.1286C19.2062 6.1286 19.1844 6.1286 19.1627 6.1286C19.1409 6.1286 19.1192 6.1286 19.0975 6.1286C19.0757 6.1286 19.054 6.1286 19.0322 6.1286C19.0105 6.1286 18.9888 6.1286 18.967 6.1286C18.9453 6.1286 18.9236 6.1286 18.9018 6.1286C18.8801 6.1286 18.8584 6.1286 18.8366 6.1286C18.8149 6.1286 18.7932 6.1286 18.7714 6.1286C18.7497 6.1286 18.728 6.1286 18.7062 6.1286C18.6845 6.1286 18.6628 6.1286 18.6411 6.1286C18.6193 6.1286 18.5976 6.1286 18.5759 6.1286C18.5542 6.1286 18.5324 6.1286 18.5107 6.1286C18.489 6.1286 18.4672 6.1286 18.4455 6.1286C18.4238 6.1286 18.4021 6.1286 18.3803 6.1286C18.3586 6.1286 18.3369 6.1286 18.3152 6.1286C18.2934 6.1286 18.2717 6.1286 18.25 6.1286C18.2283 6.1286 18.2066 6.1286 18.1848 6.1286C18.1631 6.1286 18.1414 6.1286 18.1197 6.1286C18.0979 6.1286 18.0762 6.1286 18.0545 6.1286C18.0328 6.1286 18.011 6.1286 17.9893 6.1286C17.9676 6.1286 17.9458 6.1286 17.9241 6.1286C17.9024 6.1286 17.8807 6.1286 17.8589 6.1286C17.8372 6.1286 17.8155 6.1286 17.7938 6.1286C17.772 6.1286 17.7503 6.1286 17.7286 6.1286C17.7068 6.1286 17.6851 6.1286 17.6634 6.1286C17.6416 6.1286 17.6199 6.1286 17.5982 6.1286C17.5764 6.1286 17.5547 6.1286 17.533 6.1286C17.5112 6.1286 17.4895 6.1286 17.4678 6.1286C17.446 6.1286 17.4243 6.1286 17.4025 6.1286C17.3808 6.1286 17.3591 6.1286 17.3373 6.1286C17.3156 6.1286 17.2938 6.1286 17.2721 6.1286C17.2503 6.1286 17.2286 6.1286 17.2068 6.1286C17.1851 6.1286 17.1633 6.1286 17.1416 6.1286C17.1198 6.1286 17.0981 6.1286 17.0763 6.1286C17.0546 6.1286 17.0328 6.1286 17.0111 6.1286C16.9893 6.1286 16.9675 6.1286 16.9458 6.1286C16.924 6.1286 16.9023 6.1286 16.8805 6.1286C16.8587 6.1286 16.837 6.1286 16.8152 6.1286C16.7934 6.1286 16.7717 6.1286 16.7499 6.1286C16.7281 6.1286 16.7063 6.1286 16.6845 6.1286C16.6628 6.1286 16.641 6.1286 16.6192 6.1286C16.5974 6.1286 16.5756 6.1286 16.5539 6.1286C16.5321 6.1286 16.5103 6.1286 16.4885 6.1286C16.4667 6.1286 16.4449 6.1286 16.4231 6.1286C16.4013 6.1286 16.3795 6.1286 16.3577 6.1286C16.3359 6.1286 16.3141 6.1286 16.2923 6.1286C16.2705 6.1286 16.2487 6.1286 16.2268 6.1286C16.205 6.1286 16.1832 6.1286 16.1614 6.1286C16.1396 6.1286 16.1178 6.1286 16.0959 6.1286C16.0741 6.1286 16.0523 6.1286 16.0304 6.1286C16.0086 6.1286 15.9868 6.1286 15.9649 6.1286C15.9431 6.1286 15.9212 6.1286 15.8994 6.1286C15.8776 6.1286 15.8557 6.1286 15.8339 6.1286C15.812 6.1286 15.7901 6.1286 15.7683 6.1286C15.7464 6.1286 15.7246 6.1286 15.7027 6.1286C15.6808 6.1286 15.659 6.1286 15.6371 6.1286C15.6152 6.1286 15.5933 6.1286 15.5715 6.1286C15.5496 6.1286 15.5277 6.1286 15.5058 6.1286C15.4839 6.1286 15.462 6.1286 15.4401 6.1286C15.4182 6.1286 15.3963 6.1286 15.3744 6.1286C15.3525 6.1286 15.3306 6.1286 15.3087 6.1286C15.2868 6.1286 15.2649 6.1286 15.2429 6.1286C15.221 6.1286 15.1991 6.1286 15.1772 6.1286C15.1552 6.1286 15.1333 6.1286 15.1114 6.1286C15.0894 6.1286 15.0675 6.1286 15.0455 6.1286C15.0236 6.1286 15.0016 6.1286 14.9797 6.1286C14.9577 6.1286 14.9357 6.1286 14.9138 6.1286C14.8918 6.1286 14.8698 6.1286 14.8479 6.1286C14.8259 6.1286 14.8039 6.1286 14.7819 6.1286C14.7599 6.1286 14.7379 6.1286 14.7159 6.1286C14.6939 6.1286 14.6719 6.1286 14.6499 6.1286C14.6279 6.1286 14.6059 6.1286 14.5839 6.1286C14.5619 6.1286 14.5399 6.1286 14.5178 6.1286C14.4958 6.1286 14.4738 6.1286 14.4517 6.1286C14.4297 6.1286 14.4077 6.1286 14.3856 6.1286C14.3636 6.1286 14.3415 6.1286 14.3194 6.1286C14.2974 6.1286 14.2753 6.1286 14.2532 6.1286C14.2312 6.1286 14.2091 6.1286 14.187 6.1286C14.1649 6.1286 14.1428 6.1286 14.1207 6.1286C14.0986 6.1286 14.0765 6.1286 14.0544 6.1286C14.0323 6.1286 14.0102 6.1286 13.9881 6.1286C13.966 6.1286 13.9439 6.1286 13.9217 6.1286C13.8996 6.1286 13.8775 6.1286 13.8553 6.1286C13.8332 6.1286 13.811 6.1286 13.7889 6.1286C13.7667 6.1286 13.7445 6.1286 13.7224 6.1286C13.7002 6.1286 13.678 6.1286 13.6559 6.1286C13.6337 6.1286 13.6115 6.1286 13.5893 6.1286C13.5671 6.1286 13.5449 6.1286 13.5227 6.1286C13.5005 6.1286 13.4783 6.1286 13.456 6.1286C13.4338 6.1286 13.4116 6.1286 13.3894 6.1286C13.3671 6.1286 13.3449 6.1286 13.3226 6.1286C13.3004 6.1286 13.2781 6.1286 13.2559 6.1286C13.2336 6.1286 13.2113 6.1286 13.189 6.1286C13.1668 6.1286 13.1445 6.1286 13.1222 6.1286C13.0999 6.1286 13.0776 6.1286 13.0553 6.1286C13.033 6.1286 13.0107 6.1286 12.9883 6.1286C12.966 6.1286 12.9437 6.1286 12.9214 6.1286C12.899 6.1286 12.8767 6.1286 12.8543 6.1286C12.832 6.1286 12.8096 6.1286 12.7872 6.1286C12.7649 6.1286 12.7425 6.1286 12.7201 6.1286C12.6977 6.1286 12.6753 6.1286 12.653 6.1286C12.6306 6.1286 12.6081 6.1286 12.5857 6.1286C12.5633 6.1286 12.5409 6.1286 12.5185 6.1286C12.496 6.1286 12.4736 6.1286 12.4511 6.1286C12.4287 6.1286 12.4062 6.1286 12.3838 6.1286C12.3613 6.1286 12.3388 6.1286 12.3164 6.1286C12.2939 6.1286 12.2714 6.1286 12.2489 6.1286C12.2264 6.1286 12.2039 6.1286 12.1814 6.1286C12.1589 6.1286 12.1363 6.1286 12.1138 6.1286C12.0913 6.1286 12.0687 6.1286 12.0462 6.1286C12.0236 6.1286 12.0011 6.1286 11.9785 6.1286C11.9559 6.1286 11.9334 6.1286 11.9108 6.1286C11.8882 6.1286 11.8656 6.1286 11.843 6.1286C11.8204 6.1286 11.7978 6.1286 11.7752 6.1286C11.7526 6.1286 11.7299 6.1286 11.7073 6.1286C11.6846 6.1286 11.662 6.1286 11.6393 6.1286C11.6167 6.1286 11.594 6.1286 11.5713 6.1286C11.5487 6.1286 11.526 6.1286 11.5033 6.1286C11.4806 6.1286 11.4579 6.1286 11.4352 6.1286C11.4125 6.1286 11.3897 6.1286 11.367 6.1286C11.3443 6.1286 11.3215 6.1286 11.2988 6.1286C11.276 6.1286 11.2532 6.1286 11.2305 6.1286C11.2077 6.1286 11.1849 6.1286 11.1621 6.1286C11.1393 6.1286 11.1165 6.1286 11.0937 6.1286C11.0709 6.1286 11.0481 6.1286 11.0252 6.1286C11.0024 6.1286 10.9796 6.1286 10.9567 6.1286C10.9339 6.1286 10.911 6.1286 10.8881 6.1286C10.8653 6.1286 10.8424 6.1286 10.8195 6.1286C10.7966 6.1286 10.7737 6.1286 10.7508 6.1286C10.7278 6.1286 10.7049 6.1286 10.682 6.1286C10.659 6.1286 10.6361 6.1286 10.6131 6.1286C10.5902 6.1286 10.5672 6.1286 10.5442 6.1286C10.5212 6.1286 10.4983 6.1286 10.4753 6.1286C10.4522 6.1286 10.4292 6.1286 10.4062 6.1286C10.3832 6.1286 10.3602 6.1286 10.3371 6.1286C10.3141 6.1286 10.291 6.1286 10.2679 6.1286C10.2449 6.1286 10.2218 6.1286 10.1987 6.1286C10.1756 6.1286 10.1525 6.1286 10.1294 6.1286C10.1063 6.1286 10.0832 6.1286 10.06 6.1286C10.0369 6.1286 10.0137 6.1286 9.99057 6.1286C9.96741 6.1286 9.94424 6.1286 9.92106 6.1286C9.89788 6.1286 9.87469 6.1286 9.85148 6.1286C9.82827 6.1286 9.80506 6.1286 9.78183 6.1286C9.7586 6.1286 9.73536 6.1286 9.7121 6.1286C9.68885 6.1286 9.66558 6.1286 9.64231 6.1286C9.61903 6.1286 9.59574 6.1286 9.57244 6.1286C9.54914 6.1286 9.52582 6.1286 9.50249 6.1286C9.47917 6.1286 9.45583 6.1286 9.43248 6.1286C9.40913 6.1286 9.38577 6.1286 9.36239 6.1286C9.33902 6.1286 9.31563 6.1286 9.29223 6.1286C9.26883 6.1286 9.24542 6.1286 9.22199 6.1286C9.19857 6.1286 9.17513 6.1286 9.15168 6.1286C9.12823 6.1286 9.10476 6.1286 9.08129 6.1286C9.05781 6.1286 9.03432 6.1286 9.01082 6.1286C8.98732 6.1286 8.96381 6.1286 8.94028 6.1286C8.91675 6.1286 8.89321 6.1286 8.86966 6.1286C8.8461 6.1286 8.82254 6.1286 8.79896 6.1286C8.77538 6.1286 8.75179 6.1286 8.72818 6.1286C8.70457 6.1286 8.68095 6.1286 8.65732 6.1286C8.63369 6.1286 8.61004 6.1286 8.58638 6.1286C8.56272 6.1286 8.53905 6.1286 8.51536 6.1286C8.49168 6.1286 8.46798 6.1286 8.44426 6.1286C8.42055 6.1286 8.39682 6.1286 8.37308 6.1286C8.34934 6.1286 8.32559 6.1286 8.30182 6.1286C8.27805 6.1286 8.25427 6.1286 8.23047 6.1286C8.20667 6.1286 8.18287 6.1286 8.15904 6.1286C8.13522 6.1286 8.11138 6.1286 8.08753 6.1286C8.06367 6.1286 8.03981 6.1286 8.01593 6.1286C7.99205 6.1286 7.96815 6.1286 7.94424 6.1286C7.92033 6.1286 7.89641 6.1286 7.87247 6.1286C7.84854 6.1286 7.82458 6.1286 7.80062 6.1286C7.77665 6.1286 7.75267 6.1286 7.72867 6.1286C7.70468 6.1286 7.68067 6.1286 7.65664 6.1286C7.63262 6.1286 7.60858 6.1286 7.58453 6.1286C7.56047 6.1286 7.5364 6.1286 7.51232 6.1286C7.48824 6.1286 7.46414 6.1286 7.44003 6.1286C7.41591 6.1286 7.39178 6.1286 7.36764 6.1286C7.3435 6.1286 7.31934 6.1286 7.29516 6.1286C7.27099 6.1286 7.2468 6.1286 7.2226 6.1286C7.19839 6.1286 7.17418 6.1286 7.14994 6.1286C7.12571 6.1286 7.10146 6.1286 7.07719 6.1286C7.05293 6.1286 7.02865 6.1286 7.00435 6.1286C6.98005 6.1286 6.95574 6.1286 6.93142 6.1286C6.90709 6.1286 6.88275 6.1286 6.85839 6.1286C6.83403 6.1286 6.80966 6.1286 6.78527 6.1286C6.76088 6.1286 6.73647 6.1286 6.71205 6.1286C6.68763 6.1286 6.66319 6.1286 6.63874 6.1286C6.61428 6.1286 6.58982 6.1286 6.56533 6.1286C6.54085 6.1286 6.51634 6.1286 6.49183 6.1286C6.46731 6.1286 6.44278 6.1286 6.41823 6.1286C6.39368 6.1286 6.36911 6.1286 6.34453 6.1286C6.31995 6.1286 6.29535 6.1286 6.27073 6.1286C6.24612 6.1286 6.22149 6.1286 6.19684 6.1286C6.17219 6.1286 6.14753 6.1286 6.12284 6.1286C6.09816 6.1286 6.07347 6.1286 6.04875 6.1286C6.02404 6.1286 5.99931 6.1286 5.97456 6.1286C5.94981 6.1286 5.92505 6.1286 5.90026 6.1286C5.87548 6.1286 5.85068 6.1286 5.82587 6.1286C5.80105 6.1286 5.77622 6.1286 5.75137 6.1286C5.72652 6.1286 5.70165 6.1286 5.67677 6.1286C5.65189 6.1286 5.62699 6.1286 5.60207 6.1286C5.57715 6.1286 5.55221 6.1286 5.52726 6.1286C5.50231 6.1286 5.47734 6.1286 5.45235 6.1286C5.42736 6.1286 5.40236 6.1286 5.37733 6.1286C5.35231 6.1286 5.32727 6.1286 5.30221 6.1286C5.27715 6.1286 5.25208 6.1286 5.22699 6.1286C5.20189 6.1286 5.17678 6.1286 5.15165 6.1286C5.12652 6.1286 5.10138 6.1286 5.07621 6.1286C5.05105 6.1286 5.02587 6.1286 5.00067 6.1286C4.97547 6.1286 4.95025 6.1286 4.92501 6.1286C4.89977 6.1286 4.87452 6.1286 4.84925 6.1286C4.82397 6.1286 4.79868 6.1286 4.77337 6.1286C4.74806 6.1286 4.72274 6.1286 4.69739 6.1286C4.67204 6.1286 4.64668 6.1286 4.6213 6.1286C4.59591 6.1286 4.57051 6.1286 4.54509 6.1286C4.51967 6.1286 4.49424 6.1286 4.46878 6.1286C4.44332 6.1286 4.41784 6.1286 4.39235 6.1286C4.36686 6.1286 4.34134 6.1286 4.31581 6.1286C4.29028 6.1286 4.26472 6.1286 4.23915 6.1286C4.21358 6.1286 4.188 6.1286 4.16239 6.1286C4.13678 6.1286 4.11115 6.1286 4.08551 6.1286C4.05986 6.1286 4.03419 6.1286 4.00851 6.1286C3.98283 6.1286 3.95712 6.1286 3.9314 6.1286C3.90568 6.1286 3.87994 6.1286 3.85418 6.1286C3.82841 6.1286 3.80263 6.1286 3.77683 6.1286C3.75103 6.1286 3.72521 6.1286 3.69937 6.1286C3.67353 6.1286 3.64767 6.1286 3.62179 6.1286C3.59591 6.1286 3.57001 6.1286 3.54409 6.1286C3.51818 6.1286 3.49224 6.1286 3.46628 6.1286C3.44032 6.1286 3.41434 6.1286 3.38835 6.1286C3.36235 6.1286 3.33633 6.1286 3.31029 6.1286C3.28425 6.1286 3.25819 6.1286 3.23212 6.1286C3.20604 6.1286 3.17994 6.1286 3.15382 6.1286C3.1277 6.1286 3.10157 6.1286 3.07541 6.1286C3.04925 6.1286 3.02307 6.1286 2.99686 6.1286C2.97066 6.1286 2.94445 6.1286 2.91821 6.1286C2.89196 6.1286 2.8657 6.1286 2.83942 6.1286C2.81314 6.1286 2.78683 6.1286 2.76051 6.1286C2.73419 6.1286 2.70784 6.1286 2.68148 6.1286C2.65511 6.1286 2.62873 6.1286 2.60232 6.1286C2.57591 6.1286 2.54949 6.1286 2.52304 6.1286C2.49659 6.1286 2.47012 6.1286 2.44363 6.1286C2.41714 6.1286 2.39062 6.1286 2.36409 6.1286C2.33756 6.1286 2.311 6.1286 2.28443 6.1286C2.25785 6.1286 2.23126 6.1286 2.20464 6.1286C2.17802 6.1286 2.15138 6.1286 2.12472 6.1286C2.09806 6.1286 2.07138 6.1286 2.04467 6.1286C2.01797 6.1286 1.99125 6.1286 1.9645 6.1286C1.93775 6.1286 1.91098 6.1286 1.88419 6.1286C1.8574 6.1286 1.83059 6.1286 1.80375 6.1286C1.77692 6.1286 1.75006 6.1286 1.72319 6.1286C1.69631 6.1286 1.66941 6.1286 1.64249 6.1286C1.61556 6.1286 1.58862 6.1286 1.56165 6.1286C1.53469 6.1286 1.5077 6.1286 1.48069 6.1286C1.45368 6.1286 1.42665 6.1286 1.39959 6.1286C1.37254 6.1286 1.34546 6.1286 1.31836 6.1286C1.29126 6.1286 1.26414 6.1286 1.237 6.1286C1.20985 6.1286 1.18268 6.1286 1.15549 6.1286C1.1283 6.1286 1.10109 6.1286 1.07386 6.1286C1.04662 6.1286 1.01937 6.1286 0.992085 6.1286C0.964806 6.1286 0.937504 6.1286 0.910175 6.1286C0.882851 6.1286 0.855503 6.1286 0.828129 6.1286C0.800758 6.1286 0.773365 6.1286 0.745945 6.1286C0.718529 6.1286 0.691086 6.1286 0.663624 6.1286C0.636158 6.1286 0.608673 6.1286 0.581161 6.1286C0.553654 6.1286 0.526119 6.1286 0.498562 6.1286C0.471004 6.1286 0.443424 6.1286 0.415821 6.1286C0.388218 6.1286 0.360592 6.1286 0.332939 6.1286C0.30529 6.1286 0.277615 6.1286 0.24992 6.1286C0.222221 6.1286 0.1945 6.1286 0.166756 6.1286C0.139011 6.1286 0.11124 6.1286 0.0834503 6.1286C0.0556564 6.1286 0.0278397 6.1286 0 6.1286V7.1286C0.0278397 7.1286 0.0556564 7.1286 0.0834503 7.1286C0.11124 7.1286 0.139011 7.1286 0.166756 7.1286C0.1945 7.1286 0.222221 7.1286 0.24992 7.1286C0.277615 7.1286 0.30529 7.1286 0.332939 7.1286C0.360592 7.1286 0.388218 7.1286 0.415821 7.1286C0.443424 7.1286 0.471004 7.1286 0.498562 7.1286C0.526119 7.1286 0.553654 7.1286 0.581161 7.1286C0.608673 7.1286 0.636158 7.1286 0.663624 7.1286C0.691086 7.1286 0.718529 7.1286 0.745945 7.1286C0.773365 7.1286 0.800758 7.1286 0.828129 7.1286C0.855503 7.1286 0.882851 7.1286 0.910175 7.1286C0.937504 7.1286 0.964806 7.1286 0.992085 7.1286C1.01937 7.1286 1.04662 7.1286 1.07386 7.1286C1.10109 7.1286 1.1283 7.1286 1.15549 7.1286C1.18268 7.1286 1.20985 7.1286 1.237 7.1286C1.26414 7.1286 1.29126 7.1286 1.31836 7.1286C1.34546 7.1286 1.37254 7.1286 1.39959 7.1286C1.42665 7.1286 1.45368 7.1286 1.48069 7.1286C1.5077 7.1286 1.53469 7.1286 1.56165 7.1286C1.58862 7.1286 1.61556 7.1286 1.64249 7.1286C1.66941 7.1286 1.69631 7.1286 1.72319 7.1286C1.75006 7.1286 1.77692 7.1286 1.80375 7.1286C1.83059 7.1286 1.8574 7.1286 1.88419 7.1286C1.91098 7.1286 1.93775 7.1286 1.9645 7.1286C1.99125 7.1286 2.01797 7.1286 2.04467 7.1286C2.07138 7.1286 2.09806 7.1286 2.12472 7.1286C2.15138 7.1286 2.17802 7.1286 2.20464 7.1286C2.23126 7.1286 2.25785 7.1286 2.28443 7.1286C2.311 7.1286 2.33756 7.1286 2.36409 7.1286C2.39062 7.1286 2.41714 7.1286 2.44363 7.1286C2.47012 7.1286 2.49659 7.1286 2.52304 7.1286C2.54949 7.1286 2.57591 7.1286 2.60232 7.1286C2.62873 7.1286 2.65511 7.1286 2.68148 7.1286C2.70784 7.1286 2.73419 7.1286 2.76051 7.1286C2.78683 7.1286 2.81314 7.1286 2.83942 7.1286C2.8657 7.1286 2.89196 7.1286 2.91821 7.1286C2.94445 7.1286 2.97066 7.1286 2.99686 7.1286C3.02307 7.1286 3.04925 7.1286 3.07541 7.1286C3.10157 7.1286 3.1277 7.1286 3.15382 7.1286C3.17994 7.1286 3.20604 7.1286 3.23212 7.1286C3.25819 7.1286 3.28425 7.1286 3.31029 7.1286C3.33633 7.1286 3.36235 7.1286 3.38835 7.1286C3.41434 7.1286 3.44032 7.1286 3.46628 7.1286C3.49224 7.1286 3.51818 7.1286 3.54409 7.1286C3.57001 7.1286 3.59591 7.1286 3.62179 7.1286C3.64767 7.1286 3.67353 7.1286 3.69937 7.1286C3.72521 7.1286 3.75103 7.1286 3.77683 7.1286C3.80263 7.1286 3.82841 7.1286 3.85418 7.1286C3.87994 7.1286 3.90568 7.1286 3.9314 7.1286C3.95712 7.1286 3.98283 7.1286 4.00851 7.1286C4.03419 7.1286 4.05986 7.1286 4.08551 7.1286C4.11115 7.1286 4.13678 7.1286 4.16239 7.1286C4.188 7.1286 4.21358 7.1286 4.23915 7.1286C4.26472 7.1286 4.29028 7.1286 4.31581 7.1286C4.34134 7.1286 4.36686 7.1286 4.39235 7.1286C4.41784 7.1286 4.44332 7.1286 4.46878 7.1286C4.49424 7.1286 4.51967 7.1286 4.54509 7.1286C4.57051 7.1286 4.59591 7.1286 4.6213 7.1286C4.64668 7.1286 4.67204 7.1286 4.69739 7.1286C4.72274 7.1286 4.74806 7.1286 4.77337 7.1286C4.79868 7.1286 4.82397 7.1286 4.84925 7.1286C4.87452 7.1286 4.89977 7.1286 4.92501 7.1286C4.95025 7.1286 4.97547 7.1286 5.00067 7.1286C5.02587 7.1286 5.05105 7.1286 5.07621 7.1286C5.10138 7.1286 5.12652 7.1286 5.15165 7.1286C5.17678 7.1286 5.20189 7.1286 5.22699 7.1286C5.25208 7.1286 5.27715 7.1286 5.30221 7.1286C5.32727 7.1286 5.35231 7.1286 5.37733 7.1286C5.40236 7.1286 5.42736 7.1286 5.45235 7.1286C5.47734 7.1286 5.50231 7.1286 5.52726 7.1286C5.55221 7.1286 5.57715 7.1286 5.60207 7.1286C5.62699 7.1286 5.65189 7.1286 5.67677 7.1286C5.70165 7.1286 5.72652 7.1286 5.75137 7.1286C5.77622 7.1286 5.80105 7.1286 5.82587 7.1286C5.85068 7.1286 5.87548 7.1286 5.90026 7.1286C5.92505 7.1286 5.94981 7.1286 5.97456 7.1286C5.99931 7.1286 6.02404 7.1286 6.04875 7.1286C6.07347 7.1286 6.09816 7.1286 6.12284 7.1286C6.14753 7.1286 6.17219 7.1286 6.19684 7.1286C6.22149 7.1286 6.24612 7.1286 6.27073 7.1286C6.29535 7.1286 6.31995 7.1286 6.34453 7.1286C6.36911 7.1286 6.39368 7.1286 6.41823 7.1286C6.44278 7.1286 6.46731 7.1286 6.49183 7.1286C6.51634 7.1286 6.54085 7.1286 6.56533 7.1286C6.58982 7.1286 6.61428 7.1286 6.63874 7.1286C6.66319 7.1286 6.68763 7.1286 6.71205 7.1286C6.73647 7.1286 6.76088 7.1286 6.78527 7.1286C6.80966 7.1286 6.83403 7.1286 6.85839 7.1286C6.88275 7.1286 6.90709 7.1286 6.93142 7.1286C6.95574 7.1286 6.98005 7.1286 7.00435 7.1286C7.02865 7.1286 7.05293 7.1286 7.07719 7.1286C7.10146 7.1286 7.12571 7.1286 7.14994 7.1286C7.17418 7.1286 7.19839 7.1286 7.2226 7.1286C7.2468 7.1286 7.27099 7.1286 7.29516 7.1286C7.31934 7.1286 7.3435 7.1286 7.36764 7.1286C7.39178 7.1286 7.41591 7.1286 7.44003 7.1286C7.46414 7.1286 7.48824 7.1286 7.51232 7.1286C7.5364 7.1286 7.56047 7.1286 7.58453 7.1286C7.60858 7.1286 7.63262 7.1286 7.65664 7.1286C7.68067 7.1286 7.70468 7.1286 7.72867 7.1286C7.75267 7.1286 7.77665 7.1286 7.80062 7.1286C7.82458 7.1286 7.84854 7.1286 7.87247 7.1286C7.89641 7.1286 7.92033 7.1286 7.94424 7.1286C7.96815 7.1286 7.99205 7.1286 8.01593 7.1286C8.03981 7.1286 8.06367 7.1286 8.08753 7.1286C8.11138 7.1286 8.13522 7.1286 8.15904 7.1286C8.18287 7.1286 8.20667 7.1286 8.23047 7.1286C8.25427 7.1286 8.27805 7.1286 8.30182 7.1286C8.32559 7.1286 8.34934 7.1286 8.37308 7.1286C8.39682 7.1286 8.42055 7.1286 8.44426 7.1286C8.46798 7.1286 8.49168 7.1286 8.51536 7.1286C8.53905 7.1286 8.56272 7.1286 8.58638 7.1286C8.61004 7.1286 8.63369 7.1286 8.65732 7.1286C8.68095 7.1286 8.70457 7.1286 8.72818 7.1286C8.75179 7.1286 8.77538 7.1286 8.79896 7.1286C8.82254 7.1286 8.8461 7.1286 8.86966 7.1286C8.89321 7.1286 8.91675 7.1286 8.94028 7.1286C8.96381 7.1286 8.98732 7.1286 9.01082 7.1286C9.03432 7.1286 9.05781 7.1286 9.08129 7.1286C9.10476 7.1286 9.12823 7.1286 9.15168 7.1286C9.17513 7.1286 9.19857 7.1286 9.22199 7.1286C9.24542 7.1286 9.26883 7.1286 9.29223 7.1286C9.31563 7.1286 9.33902 7.1286 9.36239 7.1286C9.38577 7.1286 9.40913 7.1286 9.43248 7.1286C9.45583 7.1286 9.47917 7.1286 9.50249 7.1286C9.52582 7.1286 9.54914 7.1286 9.57244 7.1286C9.59574 7.1286 9.61903 7.1286 9.64231 7.1286C9.66558 7.1286 9.68885 7.1286 9.7121 7.1286C9.73536 7.1286 9.7586 7.1286 9.78183 7.1286C9.80506 7.1286 9.82827 7.1286 9.85148 7.1286C9.87469 7.1286 9.89788 7.1286 9.92106 7.1286C9.94424 7.1286 9.96741 7.1286 9.99057 7.1286C10.0137 7.1286 10.0369 7.1286 10.06 7.1286C10.0832 7.1286 10.1063 7.1286 10.1294 7.1286C10.1525 7.1286 10.1756 7.1286 10.1987 7.1286C10.2218 7.1286 10.2449 7.1286 10.2679 7.1286C10.291 7.1286 10.3141 7.1286 10.3371 7.1286C10.3602 7.1286 10.3832 7.1286 10.4062 7.1286C10.4292 7.1286 10.4522 7.1286 10.4753 7.1286C10.4983 7.1286 10.5212 7.1286 10.5442 7.1286C10.5672 7.1286 10.5902 7.1286 10.6131 7.1286C10.6361 7.1286 10.659 7.1286 10.682 7.1286C10.7049 7.1286 10.7278 7.1286 10.7508 7.1286C10.7737 7.1286 10.7966 7.1286 10.8195 7.1286C10.8424 7.1286 10.8653 7.1286 10.8881 7.1286C10.911 7.1286 10.9339 7.1286 10.9567 7.1286C10.9796 7.1286 11.0024 7.1286 11.0252 7.1286C11.0481 7.1286 11.0709 7.1286 11.0937 7.1286C11.1165 7.1286 11.1393 7.1286 11.1621 7.1286C11.1849 7.1286 11.2077 7.1286 11.2305 7.1286C11.2532 7.1286 11.276 7.1286 11.2988 7.1286C11.3215 7.1286 11.3443 7.1286 11.367 7.1286C11.3897 7.1286 11.4125 7.1286 11.4352 7.1286C11.4579 7.1286 11.4806 7.1286 11.5033 7.1286C11.526 7.1286 11.5487 7.1286 11.5713 7.1286C11.594 7.1286 11.6167 7.1286 11.6393 7.1286C11.662 7.1286 11.6846 7.1286 11.7073 7.1286C11.7299 7.1286 11.7526 7.1286 11.7752 7.1286C11.7978 7.1286 11.8204 7.1286 11.843 7.1286C11.8656 7.1286 11.8882 7.1286 11.9108 7.1286C11.9334 7.1286 11.9559 7.1286 11.9785 7.1286C12.0011 7.1286 12.0236 7.1286 12.0462 7.1286C12.0687 7.1286 12.0913 7.1286 12.1138 7.1286C12.1363 7.1286 12.1589 7.1286 12.1814 7.1286C12.2039 7.1286 12.2264 7.1286 12.2489 7.1286C12.2714 7.1286 12.2939 7.1286 12.3164 7.1286C12.3388 7.1286 12.3613 7.1286 12.3838 7.1286C12.4062 7.1286 12.4287 7.1286 12.4511 7.1286C12.4736 7.1286 12.496 7.1286 12.5185 7.1286C12.5409 7.1286 12.5633 7.1286 12.5857 7.1286C12.6081 7.1286 12.6306 7.1286 12.653 7.1286C12.6753 7.1286 12.6977 7.1286 12.7201 7.1286C12.7425 7.1286 12.7649 7.1286 12.7872 7.1286C12.8096 7.1286 12.832 7.1286 12.8543 7.1286C12.8767 7.1286 12.899 7.1286 12.9214 7.1286C12.9437 7.1286 12.966 7.1286 12.9883 7.1286C13.0107 7.1286 13.033 7.1286 13.0553 7.1286C13.0776 7.1286 13.0999 7.1286 13.1222 7.1286C13.1445 7.1286 13.1668 7.1286 13.189 7.1286C13.2113 7.1286 13.2336 7.1286 13.2559 7.1286C13.2781 7.1286 13.3004 7.1286 13.3226 7.1286C13.3449 7.1286 13.3671 7.1286 13.3894 7.1286C13.4116 7.1286 13.4338 7.1286 13.456 7.1286C13.4783 7.1286 13.5005 7.1286 13.5227 7.1286C13.5449 7.1286 13.5671 7.1286 13.5893 7.1286C13.6115 7.1286 13.6337 7.1286 13.6559 7.1286C13.678 7.1286 13.7002 7.1286 13.7224 7.1286C13.7445 7.1286 13.7667 7.1286 13.7889 7.1286C13.811 7.1286 13.8332 7.1286 13.8553 7.1286C13.8775 7.1286 13.8996 7.1286 13.9217 7.1286C13.9439 7.1286 13.966 7.1286 13.9881 7.1286C14.0102 7.1286 14.0323 7.1286 14.0544 7.1286C14.0765 7.1286 14.0986 7.1286 14.1207 7.1286C14.1428 7.1286 14.1649 7.1286 14.187 7.1286C14.2091 7.1286 14.2312 7.1286 14.2532 7.1286C14.2753 7.1286 14.2974 7.1286 14.3194 7.1286C14.3415 7.1286 14.3636 7.1286 14.3856 7.1286C14.4077 7.1286 14.4297 7.1286 14.4517 7.1286C14.4738 7.1286 14.4958 7.1286 14.5178 7.1286C14.5399 7.1286 14.5619 7.1286 14.5839 7.1286C14.6059 7.1286 14.6279 7.1286 14.6499 7.1286C14.6719 7.1286 14.6939 7.1286 14.7159 7.1286C14.7379 7.1286 14.7599 7.1286 14.7819 7.1286C14.8039 7.1286 14.8259 7.1286 14.8479 7.1286C14.8698 7.1286 14.8918 7.1286 14.9138 7.1286C14.9357 7.1286 14.9577 7.1286 14.9797 7.1286C15.0016 7.1286 15.0236 7.1286 15.0455 7.1286C15.0675 7.1286 15.0894 7.1286 15.1114 7.1286C15.1333 7.1286 15.1552 7.1286 15.1772 7.1286C15.1991 7.1286 15.221 7.1286 15.2429 7.1286C15.2649 7.1286 15.2868 7.1286 15.3087 7.1286C15.3306 7.1286 15.3525 7.1286 15.3744 7.1286C15.3963 7.1286 15.4182 7.1286 15.4401 7.1286C15.462 7.1286 15.4839 7.1286 15.5058 7.1286C15.5277 7.1286 15.5496 7.1286 15.5715 7.1286C15.5933 7.1286 15.6152 7.1286 15.6371 7.1286C15.659 7.1286 15.6808 7.1286 15.7027 7.1286C15.7246 7.1286 15.7464 7.1286 15.7683 7.1286C15.7901 7.1286 15.812 7.1286 15.8339 7.1286C15.8557 7.1286 15.8776 7.1286 15.8994 7.1286C15.9212 7.1286 15.9431 7.1286 15.9649 7.1286C15.9868 7.1286 16.0086 7.1286 16.0304 7.1286C16.0523 7.1286 16.0741 7.1286 16.0959 7.1286C16.1178 7.1286 16.1396 7.1286 16.1614 7.1286C16.1832 7.1286 16.205 7.1286 16.2268 7.1286C16.2487 7.1286 16.2705 7.1286 16.2923 7.1286C16.3141 7.1286 16.3359 7.1286 16.3577 7.1286C16.3795 7.1286 16.4013 7.1286 16.4231 7.1286C16.4449 7.1286 16.4667 7.1286 16.4885 7.1286C16.5103 7.1286 16.5321 7.1286 16.5539 7.1286C16.5756 7.1286 16.5974 7.1286 16.6192 7.1286C16.641 7.1286 16.6628 7.1286 16.6845 7.1286C16.7063 7.1286 16.7281 7.1286 16.7499 7.1286C16.7717 7.1286 16.7934 7.1286 16.8152 7.1286C16.837 7.1286 16.8587 7.1286 16.8805 7.1286C16.9023 7.1286 16.924 7.1286 16.9458 7.1286C16.9675 7.1286 16.9893 7.1286 17.0111 7.1286C17.0328 7.1286 17.0546 7.1286 17.0763 7.1286C17.0981 7.1286 17.1198 7.1286 17.1416 7.1286C17.1633 7.1286 17.1851 7.1286 17.2068 7.1286C17.2286 7.1286 17.2503 7.1286 17.2721 7.1286C17.2938 7.1286 17.3156 7.1286 17.3373 7.1286C17.3591 7.1286 17.3808 7.1286 17.4025 7.1286C17.4243 7.1286 17.446 7.1286 17.4678 7.1286C17.4895 7.1286 17.5112 7.1286 17.533 7.1286C17.5547 7.1286 17.5764 7.1286 17.5982 7.1286C17.6199 7.1286 17.6416 7.1286 17.6634 7.1286C17.6851 7.1286 17.7068 7.1286 17.7286 7.1286C17.7503 7.1286 17.772 7.1286 17.7938 7.1286C17.8155 7.1286 17.8372 7.1286 17.8589 7.1286C17.8807 7.1286 17.9024 7.1286 17.9241 7.1286C17.9458 7.1286 17.9676 7.1286 17.9893 7.1286C18.011 7.1286 18.0328 7.1286 18.0545 7.1286C18.0762 7.1286 18.0979 7.1286 18.1197 7.1286C18.1414 7.1286 18.1631 7.1286 18.1848 7.1286C18.2066 7.1286 18.2283 7.1286 18.25 7.1286C18.2717 7.1286 18.2934 7.1286 18.3152 7.1286C18.3369 7.1286 18.3586 7.1286 18.3803 7.1286C18.4021 7.1286 18.4238 7.1286 18.4455 7.1286C18.4672 7.1286 18.489 7.1286 18.5107 7.1286C18.5324 7.1286 18.5542 7.1286 18.5759 7.1286C18.5976 7.1286 18.6193 7.1286 18.6411 7.1286C18.6628 7.1286 18.6845 7.1286 18.7062 7.1286C18.728 7.1286 18.7497 7.1286 18.7714 7.1286C18.7932 7.1286 18.8149 7.1286 18.8366 7.1286C18.8584 7.1286 18.8801 7.1286 18.9018 7.1286C18.9236 7.1286 18.9453 7.1286 18.967 7.1286C18.9888 7.1286 19.0105 7.1286 19.0322 7.1286C19.054 7.1286 19.0757 7.1286 19.0975 7.1286C19.1192 7.1286 19.1409 7.1286 19.1627 7.1286C19.1844 7.1286 19.2062 7.1286 19.2279 7.1286C19.2497 7.1286 19.2714 7.1286 19.2932 7.1286C19.3149 7.1286 19.3367 7.1286 19.3584 7.1286C19.3802 7.1286 19.4019 7.1286 19.4237 7.1286C19.4454 7.1286 19.4672 7.1286 19.4889 7.1286C19.5107 7.1286 19.5325 7.1286 19.5542 7.1286C19.576 7.1286 19.5977 7.1286 19.6195 7.1286C19.6413 7.1286 19.663 7.1286 19.6848 7.1286C19.7066 7.1286 19.7283 7.1286 19.7501 7.1286C19.7719 7.1286 19.7937 7.1286 19.8155 7.1286C19.8372 7.1286 19.859 7.1286 19.8808 7.1286C19.9026 7.1286 19.9244 7.1286 19.9461 7.1286C19.9679 7.1286 19.9897 7.1286 20.0115 7.1286C20.0333 7.1286 20.0551 7.1286 20.0769 7.1286C20.0987 7.1286 20.1205 7.1286 20.1423 7.1286C20.1641 7.1286 20.1859 7.1286 20.2077 7.1286C20.2295 7.1286 20.2513 7.1286 20.2732 7.1286C20.295 7.1286 20.3168 7.1286 20.3386 7.1286C20.3604 7.1286 20.3822 7.1286 20.4041 7.1286C20.4259 7.1286 20.4477 7.1286 20.4696 7.1286C20.4914 7.1286 20.5132 7.1286 20.5351 7.1286C20.5569 7.1286 20.5788 7.1286 20.6006 7.1286C20.6224 7.1286 20.6443 7.1286 20.6661 7.1286C20.688 7.1286 20.7099 7.1286 20.7317 7.1286C20.7536 7.1286 20.7754 7.1286 20.7973 7.1286C20.8192 7.1286 20.841 7.1286 20.8629 7.1286C20.8848 7.1286 20.9067 7.1286 20.9285 7.1286C20.9504 7.1286 20.9723 7.1286 20.9942 7.1286C21.0161 7.1286 21.038 7.1286 21.0599 7.1286C21.0818 7.1286 21.1037 7.1286 21.1256 7.1286C21.1475 7.1286 21.1694 7.1286 21.1913 7.1286C21.2132 7.1286 21.2351 7.1286 21.2571 7.1286C21.279 7.1286 21.3009 7.1286 21.3228 7.1286C21.3448 7.1286 21.3667 7.1286 21.3886 7.1286C21.4106 7.1286 21.4325 7.1286 21.4545 7.1286C21.4764 7.1286 21.4984 7.1286 21.5203 7.1286C21.5423 7.1286 21.5643 7.1286 21.5862 7.1286C21.6082 7.1286 21.6302 7.1286 21.6521 7.1286C21.6741 7.1286 21.6961 7.1286 21.7181 7.1286C21.7401 7.1286 21.7621 7.1286 21.7841 7.1286C21.8061 7.1286 21.8281 7.1286 21.8501 7.1286C21.8721 7.1286 21.8941 7.1286 21.9161 7.1286C21.9381 7.1286 21.9601 7.1286 21.9822 7.1286C22.0042 7.1286 22.0262 7.1286 22.0483 7.1286C22.0703 7.1286 22.0923 7.1286 22.1144 7.1286C22.1364 7.1286 22.1585 7.1286 22.1806 7.1286C22.2026 7.1286 22.2247 7.1286 22.2468 7.1286C22.2688 7.1286 22.2909 7.1286 22.313 7.1286C22.3351 7.1286 22.3572 7.1286 22.3793 7.1286C22.4014 7.1286 22.4235 7.1286 22.4456 7.1286C22.4677 7.1286 22.4898 7.1286 22.5119 7.1286C22.534 7.1286 22.5561 7.1286 22.5783 7.1286C22.6004 7.1286 22.6225 7.1286 22.6447 7.1286C22.6668 7.1286 22.689 7.1286 22.7111 7.1286C22.7333 7.1286 22.7555 7.1286 22.7776 7.1286C22.7998 7.1286 22.822 7.1286 22.8441 7.1286C22.8663 7.1286 22.8885 7.1286 22.9107 7.1286C22.9329 7.1286 22.9551 7.1286 22.9773 7.1286C22.9995 7.1286 23.0217 7.1286 23.044 7.1286C23.0662 7.1286 23.0884 7.1286 23.1106 7.1286C23.1329 7.1286 23.1551 7.1286 23.1774 7.1286C23.1996 7.1286 23.2219 7.1286 23.2441 7.1286C23.2664 7.1286 23.2887 7.1286 23.311 7.1286C23.3332 7.1286 23.3555 7.1286 23.3778 7.1286C23.4001 7.1286 23.4224 7.1286 23.4447 7.1286C23.467 7.1286 23.4893 7.1286 23.5117 7.1286C23.534 7.1286 23.5563 7.1286 23.5786 7.1286C23.601 7.1286 23.6233 7.1286 23.6457 7.1286C23.668 7.1286 23.6904 7.1286 23.7128 7.1286C23.7351 7.1286 23.7575 7.1286 23.7799 7.1286C23.8023 7.1286 23.8247 7.1286 23.847 7.1286C23.8694 7.1286 23.8919 7.1286 23.9143 7.1286C23.9367 7.1286 23.9591 7.1286 23.9815 7.1286C24.004 7.1286 24.0264 7.1286 24.0489 7.1286C24.0713 7.1286 24.0938 7.1286 24.1162 7.1286C24.1387 7.1286 24.1612 7.1286 24.1836 7.1286C24.2061 7.1286 24.2286 7.1286 24.2511 7.1286C24.2736 7.1286 24.2961 7.1286 24.3186 7.1286C24.3411 7.1286 24.3637 7.1286 24.3862 7.1286C24.4087 7.1286 24.4313 7.1286 24.4538 7.1286C24.4764 7.1286 24.4989 7.1286 24.5215 7.1286C24.5441 7.1286 24.5666 7.1286 24.5892 7.1286C24.6118 7.1286 24.6344 7.1286 24.657 7.1286C24.6796 7.1286 24.7022 7.1286 24.7248 7.1286C24.7474 7.1286 24.7701 7.1286 24.7927 7.1286C24.8154 7.1286 24.838 7.1286 24.8607 7.1286C24.8833 7.1286 24.906 7.1286 24.9287 7.1286C24.9513 7.1286 24.974 7.1286 24.9967 7.1286C25.0194 7.1286 25.0421 7.1286 25.0648 7.1286C25.0875 7.1286 25.1103 7.1286 25.133 7.1286C25.1557 7.1286 25.1785 7.1286 25.2012 7.1286C25.224 7.1286 25.2468 7.1286 25.2695 7.1286C25.2923 7.1286 25.3151 7.1286 25.3379 7.1286C25.3607 7.1286 25.3835 7.1286 25.4063 7.1286C25.4291 7.1286 25.4519 7.1286 25.4748 7.1286C25.4976 7.1286 25.5204 7.1286 25.5433 7.1286C25.5661 7.1286 25.589 7.1286 25.6119 7.1286C25.6347 7.1286 25.6576 7.1286 25.6805 7.1286C25.7034 7.1286 25.7263 7.1286 25.7492 7.1286C25.7722 7.1286 25.7951 7.1286 25.818 7.1286C25.841 7.1286 25.8639 7.1286 25.8869 7.1286C25.9098 7.1286 25.9328 7.1286 25.9558 7.1286C25.9788 7.1286 26.0017 7.1286 26.0247 7.1286C26.0478 7.1286 26.0708 7.1286 26.0938 7.1286C26.1168 7.1286 26.1398 7.1286 26.1629 7.1286C26.1859 7.1286 26.209 7.1286 26.2321 7.1286C26.2551 7.1286 26.2782 7.1286 26.3013 7.1286C26.3244 7.1286 26.3475 7.1286 26.3706 7.1286C26.3937 7.1286 26.4168 7.1286 26.44 7.1286C26.4631 7.1286 26.4863 7.1286 26.5094 7.1286C26.5326 7.1286 26.5558 7.1286 26.5789 7.1286C26.6021 7.1286 26.6253 7.1286 26.6485 7.1286C26.6717 7.1286 26.6949 7.1286 26.7182 7.1286C26.7414 7.1286 26.7646 7.1286 26.7879 7.1286C26.8112 7.1286 26.8344 7.1286 26.8577 7.1286C26.881 7.1286 26.9043 7.1286 26.9276 7.1286C26.9509 7.1286 26.9742 7.1286 26.9975 7.1286C27.0208 7.1286 27.0442 7.1286 27.0675 7.1286C27.0909 7.1286 27.1142 7.1286 27.1376 7.1286C27.161 7.1286 27.1844 7.1286 27.2078 7.1286C27.2312 7.1286 27.2546 7.1286 27.278 7.1286C27.3014 7.1286 27.3249 7.1286 27.3483 7.1286C27.3718 7.1286 27.3952 7.1286 27.4187 7.1286C27.4422 7.1286 27.4657 7.1286 27.4892 7.1286C27.5127 7.1286 27.5362 7.1286 27.5597 7.1286C27.5832 7.1286 27.6068 7.1286 27.6303 7.1286C27.6539 7.1286 27.6775 7.1286 27.701 7.1286C27.7246 7.1286 27.7482 7.1286 27.7718 7.1286C27.7954 7.1286 27.819 7.1286 27.8427 7.1286C27.8663 7.1286 27.89 7.1286 27.9136 7.1286C27.9373 7.1286 27.9609 7.1286 27.9846 7.1286C28.0083 7.1286 28.032 7.1286 28.0557 7.1286C28.0794 7.1286 28.1032 7.1286 28.1269 7.1286C28.1507 7.1286 28.1744 7.1286 28.1982 7.1286C28.222 7.1286 28.2457 7.1286 28.2695 7.1286C28.2933 7.1286 28.3171 7.1286 28.341 7.1286C28.3648 7.1286 28.3886 7.1286 28.4125 7.1286C28.4363 7.1286 28.4602 7.1286 28.4841 7.1286C28.508 7.1286 28.5318 7.1286 28.5558 7.1286C28.5797 7.1286 28.6036 7.1286 28.6275 7.1286C28.6515 7.1286 28.6754 7.1286 28.6994 7.1286C28.7233 7.1286 28.7473 7.1286 28.7713 7.1286C28.7953 7.1286 28.8193 7.1286 28.8434 7.1286C28.8674 7.1286 28.8914 7.1286 28.9155 7.1286C28.9395 7.1286 28.9636 7.1286 28.9877 7.1286C29.0118 7.1286 29.0359 7.1286 29.06 7.1286C29.0841 7.1286 29.1082 7.1286 29.1324 7.1286C29.1565 7.1286 29.1807 7.1286 29.2048 7.1286C29.229 7.1286 29.2532 7.1286 29.2774 7.1286C29.3016 7.1286 29.3258 7.1286 29.3501 7.1286C29.3743 7.1286 29.3985 7.1286 29.4228 7.1286C29.4471 7.1286 29.4714 7.1286 29.4956 7.1286C29.5199 7.1286 29.5443 7.1286 29.5686 7.1286C29.5929 7.1286 29.6173 7.1286 29.6416 7.1286C29.666 7.1286 29.6903 7.1286 29.7147 7.1286C29.7391 7.1286 29.7635 7.1286 29.788 7.1286C29.8124 7.1286 29.8368 7.1286 29.8613 7.1286C29.8857 7.1286 29.9102 7.1286 29.9347 7.1286C29.9592 7.1286 29.9837 7.1286 30.0082 7.1286C30.0327 7.1286 30.0572 7.1286 30.0818 7.1286C30.1063 7.1286 30.1309 7.1286 30.1555 7.1286C30.1801 7.1286 30.2047 7.1286 30.2293 7.1286C30.2539 7.1286 30.2785 7.1286 30.3032 7.1286C30.3278 7.1286 30.3525 7.1286 30.3772 7.1286C30.4018 7.1286 30.4265 7.1286 30.4512 7.1286C30.476 7.1286 30.5007 7.1286 30.5254 7.1286C30.5502 7.1286 30.575 7.1286 30.5997 7.1286C30.6245 7.1286 30.6493 7.1286 30.6741 7.1286C30.6989 7.1286 30.7238 7.1286 30.7486 7.1286C30.7735 7.1286 30.7983 7.1286 30.8232 7.1286C30.8481 7.1286 30.873 7.1286 30.8979 7.1286C30.9229 7.1286 30.9478 7.1286 30.9727 7.1286C30.9977 7.1286 31.0227 7.1286 31.0477 7.1286C31.0726 7.1286 31.0976 7.1286 31.1227 7.1286C31.1477 7.1286 31.1727 7.1286 31.1978 7.1286C31.2228 7.1286 31.2479 7.1286 31.273 7.1286C31.2981 7.1286 31.3232 7.1286 31.3483 7.1286C31.3735 7.1286 31.3986 7.1286 31.4238 7.1286C31.449 7.1286 31.4741 7.1286 31.4993 7.1286C31.5245 7.1286 31.5498 7.1286 31.575 7.1286C31.6002 7.1286 31.6255 7.1286 31.6508 7.1286C31.676 7.1286 31.7013 7.1286 31.7266 7.1286C31.7519 7.1286 31.7773 7.1286 31.8026 7.1286C31.828 7.1286 31.8533 7.1286 31.8787 7.1286C31.9041 7.1286 31.9295 7.1286 31.9549 7.1286C31.9803 7.1286 32.0058 7.1286 32.0312 7.1286C32.0567 7.1286 32.0822 7.1286 32.1077 7.1286C32.1331 7.1286 32.1587 7.1286 32.1842 7.1286C32.2097 7.1286 32.2353 7.1286 32.2608 7.1286C32.2864 7.1286 32.312 7.1286 32.3376 7.1286C32.3632 7.1286 32.3888 7.1286 32.4145 7.1286C32.4401 7.1286 32.4658 7.1286 32.4915 7.1286C32.5172 7.1286 32.5429 7.1286 32.5686 7.1286C32.5943 7.1286 32.6201 7.1286 32.6458 7.1286C32.6716 7.1286 32.6974 7.1286 32.7232 7.1286C32.749 7.1286 32.7748 7.1286 32.8006 7.1286C32.8265 7.1286 32.8523 7.1286 32.8782 7.1286C32.9041 7.1286 32.93 7.1286 32.9559 7.1286C32.9818 7.1286 33.0078 7.1286 33.0337 7.1286C33.0597 7.1286 33.0857 7.1286 33.1117 7.1286C33.1377 7.1286 33.1637 7.1286 33.1897 7.1286C33.2157 7.1286 33.2418 7.1286 33.2679 7.1286C33.294 7.1286 33.3201 7.1286 33.3462 7.1286C33.3723 7.1286 33.3984 7.1286 33.4246 7.1286C33.4508 7.1286 33.4769 7.1286 33.5031 7.1286C33.5293 7.1286 33.5556 7.1286 33.5818 7.1286C33.608 7.1286 33.6343 7.1286 33.6606 7.1286C33.6869 7.1286 33.7132 7.1286 33.7395 7.1286C33.7658 7.1286 33.7922 7.1286 33.8185 7.1286C33.8449 7.1286 33.8713 7.1286 33.8977 7.1286C33.9241 7.1286 33.9505 7.1286 33.977 7.1286C34.0034 7.1286 34.0299 7.1286 34.0564 7.1286C34.0829 7.1286 34.1094 7.1286 34.1359 7.1286C34.1624 7.1286 34.189 7.1286 34.2156 7.1286C34.2421 7.1286 34.2687 7.1286 34.2954 7.1286C34.322 7.1286 34.3486 7.1286 34.3753 7.1286C34.4019 7.1286 34.4286 7.1286 34.4553 7.1286C34.482 7.1286 34.5088 7.1286 34.5355 7.1286C34.5622 7.1286 34.589 7.1286 34.6158 7.1286C34.6426 7.1286 34.6694 7.1286 34.6962 7.1286C34.7231 7.1286 34.7499 7.1286 34.7768 7.1286C34.8037 7.1286 34.8306 7.1286 34.8575 7.1286C34.8844 7.1286 34.9114 7.1286 34.9383 7.1286C34.9653 7.1286 34.9923 7.1286 35.0193 7.1286C35.0463 7.1286 35.0734 7.1286 35.1004 7.1286C35.1275 7.1286 35.1545 7.1286 35.1816 7.1286C35.2087 7.1286 35.2359 7.1286 35.263 7.1286C35.2901 7.1286 35.3173 7.1286 35.3445 7.1286C35.3717 7.1286 35.3989 7.1286 35.4261 7.1286C35.4534 7.1286 35.4806 7.1286 35.5079 7.1286C35.5352 7.1286 35.5625 7.1286 35.5898 7.1286C35.6171 7.1286 35.6445 7.1286 35.6719 7.1286C35.6992 7.1286 35.7266 7.1286 35.7541 7.1286C35.7815 7.1286 35.8089 7.1286 35.8364 7.1286C35.8638 7.1286 35.8913 7.1286 35.9188 7.1286C35.9463 7.1286 35.9739 7.1286 36.0014 7.1286C36.029 7.1286 36.0566 7.1286 36.0842 7.1286C36.1118 7.1286 36.1394 7.1286 36.1671 7.1286C36.1947 7.1286 36.2224 7.1286 36.2501 7.1286C36.2778 7.1286 36.3055 7.1286 36.3332 7.1286C36.361 7.1286 36.3888 7.1286 36.4166 7.1286C36.4443 7.1286 36.4722 7.1286 36.5 7.1286V6.1286Z" fill="#4B4B4B"/>
</svg>
